<?xml version="1.0" encoding="utf-8"?>
<!-- Generator: Adobe Illustrator 19.0.0, SVG Export Plug-In . SVG Version: 6.00 Build 0)  -->
<svg version="1.1" xmlns="http://www.w3.org/2000/svg" xmlns:xlink="http://www.w3.org/1999/xlink" x="0px" y="0px"
	 viewBox="0 0 500 414.3" style="enable-background:new 0 0 500 414.3;" xml:space="preserve">
<style type="text/css">
	.st0{fill:#FFFFFF;}
	.st1{fill:#DEE6FC;}
	.st2{fill:#496DFA;}
	.st3{fill:#6A95F9;}
	.st4{fill:#88D4EF;}
	.st5{fill:#524CB3;}
	.st6{fill:#E488C7;}
	.st7{fill:#E6CA76;}
	.st8{fill:#716EF1;}
	.st9{fill:#514DB5;}
	.st10{fill:#F0CA76;}
	.st11{font-family:'AntipastoPro-DemiBold';}
	.st12{font-size:12px;}
	.st13{fill:none;stroke:#88D4EF;stroke-width:4;stroke-miterlimit:10;}
	.st14{fill:none;stroke:#88D4EF;stroke-width:4;stroke-linecap:round;stroke-linejoin:round;stroke-miterlimit:10;}
	.st15{fill:#F9F9F9;}
	.st16{fill:#70C4EA;}
</style>
<g id="BACKGROUND">
	<rect class="st0" width="500" height="500"/>
	<path class="st1" d="M500,0H115.8C135.5,133.3,217,256.2,328.2,333.8c52.4,36.5,110.6,63.5,171.8,81.5V0z"/>
</g>
<g id="OBJECTS">
	<g>
		<g>
			<rect x="227.9" y="272.7" class="st2" width="44.3" height="58.6"/>
			<path class="st3" d="M310.1,331.4H189.9c-1.9,0-3.4-1.5-3.4-3.4l0,0c0-1.8,1.4-3.2,3.2-3.2h120.7c1.8,0,3.2,1.4,3.2,3.2l0,0
				C313.5,329.8,312,331.4,310.1,331.4z"/>
			<path class="st3" d="M114.1,302h271.9c3,0,5.3-2.4,5.3-5.3V131.3c0-3-2.4-5.3-5.3-5.3H114.1c-3,0-5.3,2.4-5.3,5.3v165.3
				C108.7,299.6,111.1,302,114.1,302z"/>
			<rect x="119.5" y="136.8" class="st0" width="260.9" height="147.2"/>
			<rect x="134.1" y="238.8" class="st1" width="68.2" height="27.2"/>
			<rect x="215.9" y="238.8" class="st1" width="68.2" height="27.2"/>
			<rect x="297.6" y="238.8" class="st1" width="68.2" height="27.2"/>
		</g>
		<g>
			<g>
				<rect x="134.1" y="148.9" class="st1" width="58.3" height="5.5"/>
				<rect x="234" y="151.1" class="st1" width="15.5" height="3.5"/>
				<rect x="268.9" y="151.1" class="st1" width="22.4" height="3.5"/>
				<rect x="307.5" y="151.1" class="st1" width="22.4" height="3.5"/>
				<rect x="346" y="151.1" class="st1" width="22.4" height="3.5"/>
			</g>
		</g>
		<path class="st4" d="M459.8,181.8H317.6c-2.2,0-3.9-1.8-3.9-3.9V92.7c0-2.2,1.8-3.9,3.9-3.9h142.2c2.2,0,3.9,1.8,3.9,3.9v85.1
			C463.7,180,462,181.8,459.8,181.8z"/>
		<path class="st5" d="M430.1,218.1h-82.8c-2.2,0-3.9-1.8-3.9-3.9v-84.1c0-2.2,1.8-3.9,3.9-3.9h82.8c2.2,0,3.9,1.8,3.9,3.9v84.1
			C434,216.4,432.3,218.1,430.1,218.1z"/>
		<path class="st6" d="M175.8,88.7H48c-6.6,0-11.9,5.3-11.9,11.9s5.3,11.9,11.9,11.9h117.4l7.3,9.1v-9.1h3.2
			c6.6,0,11.9-5.3,11.9-11.9S182.3,88.7,175.8,88.7z"/>
		<g>
			<g>
				<g>
					<rect x="355.3" y="136.8" class="st6" width="7.6" height="2.3"/>
					<g>
						<rect x="366.9" y="136.8" class="st0" width="30.4" height="2.3"/>
					</g>
					<rect x="366.9" y="140.8" class="st0" width="5" height="2.3"/>
					<rect x="393.8" y="144.8" class="st6" width="28.3" height="2.3"/>
					<rect x="373" y="140.8" class="st0" width="15.7" height="2.3"/>
					<rect x="366.9" y="152.7" class="st0" width="5" height="2.3"/>
					<rect x="373" y="152.7" class="st7" width="5.6" height="2.3"/>
					<rect x="366.9" y="144.8" class="st6" width="25.8" height="2.3"/>
					<rect x="366.9" y="148.7" class="st0" width="55.2" height="2.3"/>
				</g>
				<g>
					<rect x="355.3" y="163.1" class="st6" width="7.6" height="2.3"/>
					<g>
						<rect x="366.9" y="163.1" class="st0" width="30.4" height="2.3"/>
					</g>
					<rect x="366.9" y="167" class="st0" width="5" height="2.3"/>
					<rect x="393.8" y="171" class="st6" width="28.3" height="2.3"/>
					<rect x="373" y="167" class="st0" width="15.7" height="2.3"/>
					<rect x="366.9" y="178.9" class="st0" width="5" height="2.3"/>
					<rect x="373" y="178.9" class="st7" width="5.6" height="2.3"/>
					<rect x="366.9" y="171" class="st6" width="25.8" height="2.3"/>
					<rect x="366.9" y="175" class="st0" width="55.2" height="2.3"/>
				</g>
				<g>
					<rect x="355.3" y="189.3" class="st6" width="7.6" height="2.3"/>
					<g>
						<rect x="366.9" y="189.3" class="st0" width="30.4" height="2.3"/>
					</g>
					<rect x="366.9" y="193.3" class="st0" width="5" height="2.3"/>
					<rect x="393.8" y="197.2" class="st6" width="28.3" height="2.3"/>
					<rect x="373" y="193.3" class="st0" width="15.7" height="2.3"/>
					<rect x="366.9" y="205.2" class="st0" width="5" height="2.3"/>
					<rect x="373" y="205.2" class="st7" width="5.6" height="2.3"/>
					<rect x="366.9" y="197.2" class="st6" width="25.8" height="2.3"/>
					<rect x="366.9" y="201.2" class="st0" width="55.2" height="2.3"/>
				</g>
			</g>
		</g>
		<g>
			<path class="st8" d="M125.1,260.3H40.2c-2.2,0-3.9-1.8-3.9-3.9v-84.9c0-2.2,1.8-3.9,3.9-3.9h84.9c2.2,0,3.9,1.8,3.9,3.9v84.9
				C129.1,258.5,127.3,260.3,125.1,260.3z"/>
			<g>
				<g>
					<g>
						<g>
							<g>
								<path class="st9" d="M82.7,252.5c-21.2,0-38.5-17.3-38.5-38.5c0-21.2,17.3-38.5,38.5-38.5c21.2,0,38.5,17.3,38.5,38.5
									C121.2,235.2,103.9,252.5,82.7,252.5z M82.7,180.1c-18.7,0-33.9,15.2-33.9,33.9c0,18.7,15.2,33.9,33.9,33.9
									c18.7,0,33.9-15.2,33.9-33.9C116.6,195.3,101.4,180.1,82.7,180.1z"/>
							</g>
						</g>
					</g>
					<g>
						<g>
							<g>
								<path class="st9" d="M82.7,244.5c-16.8,0-30.5-13.7-30.5-30.5c0-16.8,13.7-30.5,30.5-30.5c16.8,0,30.5,13.7,30.5,30.5
									C113.2,230.8,99.5,244.5,82.7,244.5z M82.7,188.1c-14.3,0-25.9,11.6-25.9,25.9c0,14.3,11.6,25.9,25.9,25.9
									c14.3,0,25.9-11.6,25.9-25.9C108.6,199.7,97,188.1,82.7,188.1z"/>
							</g>
						</g>
					</g>
					<g>
						<g>
							<path class="st4" d="M82.7,244.5c-1.3,0-2.3-1-2.3-2.3c0-1.3,1-2.3,2.3-2.3c14.3,0,25.9-11.6,25.9-25.9
								c0-14.3-11.6-25.9-25.9-25.9c-1.3,0-2.3-1-2.3-2.3c0-1.3,1-2.3,2.3-2.3c16.8,0,30.5,13.7,30.5,30.5
								C113.2,230.8,99.5,244.5,82.7,244.5z"/>
						</g>
					</g>
					<g>
						<g>
							<g>
								<path class="st9" d="M82.7,236.5c-12.4,0-22.4-10.1-22.4-22.4c0-12.4,10.1-22.4,22.4-22.4c12.4,0,22.4,10.1,22.4,22.4
									C105.2,226.4,95.1,236.5,82.7,236.5z M82.7,196.1c-9.9,0-17.9,8-17.9,17.9c0,9.9,8,17.9,17.9,17.9c9.9,0,17.9-8,17.9-17.9
									C100.6,204.2,92.6,196.1,82.7,196.1z"/>
							</g>
						</g>
					</g>
					<g>
						<g>
							<g>
								<path class="st9" d="M82.7,228.5c-8,0-14.4-6.5-14.4-14.4c0-3.7,1.4-7.1,3.8-9.8c2.7-2.9,6.6-4.6,10.6-4.6
									c8,0,14.4,6.5,14.4,14.4C97.2,222,90.7,228.5,82.7,228.5z M82.7,204.2c-2.8,0-5.3,1.1-7.2,3.2c-1.7,1.8-2.6,4.2-2.6,6.7
									c0,5.4,4.4,9.9,9.9,9.9c5.4,0,9.9-4.4,9.9-9.9C92.6,208.6,88.2,204.2,82.7,204.2z"/>
							</g>
						</g>
					</g>
					<g>
						<g>
							<path class="st6" d="M82.7,228.5c-8,0-14.4-6.5-14.4-14.4c0-1.3,1-2.3,2.3-2.3c1.3,0,2.3,1,2.3,2.3c0,5.4,4.4,9.9,9.9,9.9
								c5.4,0,9.9-4.4,9.9-9.9c0-5.4-4.4-9.9-9.9-9.9c-1.3,0-2.3-1-2.3-2.3c0-1.3,1-2.3,2.3-2.3c8,0,14.4,6.5,14.4,14.4
								C97.2,222,90.7,228.5,82.7,228.5z"/>
						</g>
					</g>
				</g>
				<g>
					<g>
						<path class="st0" d="M118.9,216.7c-1.5,0-2.6-1.2-2.6-2.6c0-18.5-15-33.5-33.5-33.5c-1.5,0-2.6-1.2-2.6-2.6
							c0-1.5,1.2-2.6,2.6-2.6c21.4,0,38.8,17.4,38.8,38.8C121.5,215.5,120.4,216.7,118.9,216.7z"/>
					</g>
				</g>
				<g>
					<path class="st10" d="M82.7,236.8c-6.5,0-12.7-2.8-17-7.7c-1-1.1-0.9-2.8,0.2-3.7c1.1-1,2.8-0.9,3.7,0.2
						c3.3,3.7,8.1,5.9,13.1,5.9c9.7,0,17.5-7.9,17.5-17.5c0-9.7-7.9-17.5-17.5-17.5c-1.5,0-2.6-1.2-2.6-2.6c0-1.5,1.2-2.6,2.6-2.6
						c12.6,0,22.8,10.2,22.8,22.8C105.5,226.6,95.3,236.8,82.7,236.8z"/>
				</g>
			</g>
			<polyline class="st8" points="127.1,182.9 135.4,176.3 127.1,176.3 			"/>
		</g>
		<text transform="matrix(1 0 0 1 134.0834 196)" class="st1 st11 st12">Web Design</text>
		<g>
			<g>
				<g>
					<rect x="134.1" y="203.9" class="st1" width="15.3" height="3"/>
				</g>
				<g>
					<g>
						<rect x="134.1" y="210" class="st1" width="89.6" height="3.5"/>
					</g>
					<g>
						<rect x="134.1" y="216.1" class="st1" width="89.6" height="3.5"/>
					</g>
					<g>
						<rect x="134.1" y="222.2" class="st1" width="48" height="3.5"/>
					</g>
				</g>
			</g>
		</g>
		<g>
			<path class="st0" d="M460.7,284.2h-54.2c-1.7,0-3-1.3-3-3v-54.2c0-1.7,1.3-3,3-3h54.2c1.7,0,3,1.3,3,3v54.2
				C463.7,282.8,462.4,284.2,460.7,284.2z"/>
			<g>
				<g>
					<rect x="416.6" y="259.8" class="st6" width="5.2" height="9.8"/>
					<rect x="424" y="247.2" class="st7" width="5.2" height="22.4"/>
					<rect x="431.4" y="254.9" class="st8" width="5.2" height="14.7"/>
					<rect x="438.8" y="240.2" class="st3" width="5.2" height="29.4"/>
					<rect x="446.3" y="236" class="st4" width="5.2" height="33.6"/>
				</g>
				<rect x="416.6" y="272.8" class="st1" width="5.2" height="1.1"/>
				<rect x="424" y="272.8" class="st1" width="5.2" height="1.1"/>
				<rect x="431.4" y="272.8" class="st1" width="5.2" height="1.1"/>
				<rect x="438.8" y="272.8" class="st1" width="5.2" height="1.1"/>
				<rect x="446.3" y="272.8" class="st1" width="5.2" height="1.1"/>
			</g>
		</g>
		<circle class="st13" cx="78.1" cy="141" r="4.6"/>
		<circle class="st13" cx="410" cy="309.1" r="4.6"/>
		<circle class="st1" cx="92.9" cy="150.9" r="3.9"/>
		<g>
			<g>
				<g>
					<path class="st4" d="M150.8,326.1H72.9c-1.7,0-3-1.3-3-3v-50.5c0-1.7,1.3-3,3-3h77.9c1.7,0,3,1.3,3,3v50.5
						C153.8,324.8,152.5,326.1,150.8,326.1z"/>
					<rect x="74.2" y="273.9" class="st5" width="75.3" height="47.9"/>
					<circle class="st7" cx="116.9" cy="291.4" r="6.3"/>
				</g>
			</g>
			<polygon class="st0" points="149.5,315 130.6,296 117.3,309.3 90.2,282.2 74.2,298.1 74.2,321.9 149.5,321.9 			"/>
		</g>
		<g>
			<line class="st14" x1="280.1" y1="107.1" x2="280.1" y2="115"/>
			<line class="st14" x1="284.1" y1="111.1" x2="276.2" y2="111.1"/>
		</g>
		<g>
			<line class="st14" x1="448.9" y1="197.2" x2="448.9" y2="205.2"/>
			<line class="st14" x1="452.8" y1="201.2" x2="444.9" y2="201.2"/>
		</g>
		<g>
			<line class="st14" x1="168.2" y1="309" x2="168.2" y2="317"/>
			<line class="st14" x1="172.1" y1="313" x2="164.2" y2="313"/>
		</g>
		<circle class="st0" cx="184.3" cy="308.2" r="2.2"/>
		<circle class="st0" cx="193.7" cy="311.7" r="1.3"/>
		<circle class="st1" cx="52.8" cy="280.5" r="3.5"/>
		<circle class="st0" cx="395.3" cy="314.9" r="4"/>
		<g>
			<circle class="st0" cx="266.4" cy="101.4" r="2.7"/>
			<circle class="st0" cx="292.3" cy="116" r="2.3"/>
			<circle class="st0" cx="296.3" cy="108.8" r="1.7"/>
		</g>
		<g>
			<g>
				<g>
					<path class="st6" d="M233.6,111.8h16.3c0.7,0,1.3,0.6,1.3,1.3v14.4c0,0.7-0.6,1.3-1.3,1.3H245l-3.3,3.3l-3.3-3.3h-4.8
						c-0.7,0-1.3-0.6-1.3-1.3v-14.4C232.3,112.4,232.9,111.8,233.6,111.8z"/>
				</g>
			</g>
			<path class="st15" d="M245.4,118.4c-0.8-0.8-2.1-0.8-3,0l-0.7,0.7l-0.7-0.7c-0.8-0.8-2.1-0.8-3,0c-0.8,0.8-0.8,2.1,0,3l3.6,3.6
				l3.6-3.6C246.2,120.5,246.2,119.2,245.4,118.4z"/>
		</g>
		<g>
			<circle class="st4" cx="360.5" cy="308.2" r="13.5"/>
			<path class="st0" d="M360.5,299.3c-4.9,0-8.9,4-8.9,8.9c0,1.7,0.5,3.4,1.5,4.9c0.2,0.3,0.2,0.6,0.1,0.9l-0.9,2.5l2.5-0.9
				c0.3-0.1,0.6-0.1,0.9,0.1c1.4,0.9,3.1,1.5,4.9,1.5c4.9,0,8.9-4,8.9-8.9C369.4,303.3,365.4,299.3,360.5,299.3z M361.1,310.3
				l-1.5-1.5l-3.2,1.5l3.4-4.2l1.7,2.1l3.1-2.1L361.1,310.3z"/>
		</g>
		<g>
			<g>
				<path class="st16" d="M333.2,98.5L326,106c-0.1,0.1-0.2,0.3-0.2,0.5v6.6c0,0.4,0.3,0.7,0.7,0.7h4.9c0.4,0,0.7-0.3,0.7-0.7v-3.2
					c0-0.9,0.7-1.7,1.7-1.7l0,0c0.9,0,1.7,0.7,1.7,1.7v3.2c0,0.4,0.3,0.7,0.7,0.7h4.9c0.4,0,0.7-0.3,0.7-0.7v-6.6
					c0-0.2-0.1-0.3-0.2-0.5l-7.2-7.4C333.9,98.3,333.4,98.3,333.2,98.5z"/>
			</g>
		</g>
		<g>
			<path class="st10" d="M60.4,303.2H40.1c-2.1,0-3.8-1.7-3.8-3.8v-20.3c0-2.1,1.7-3.8,3.8-3.8h20.3c2.1,0,3.8,1.7,3.8,3.8v20.3
				C64.2,301.5,62.5,303.2,60.4,303.2z"/>
			<path class="st0" d="M59.3,296.4l-3.8-3.8c0.9-1.3,1.4-2.9,1.4-4.5c0-4.4-3.6-8-8-8c-4.4,0-8,3.6-8,8c0,4.4,3.6,8,8,8
				c1.7,0,3.3-0.5,4.5-1.4l3.8,3.8L59.3,296.4z M49,293.3c-2.8,0-5.2-2.3-5.2-5.2c0-2.8,2.3-5.2,5.2-5.2c2.8,0,5.2,2.3,5.2,5.2
				C54.2,290.9,51.9,293.3,49,293.3z"/>
		</g>
	</g>
</g>
<g id="DESIGNED_BY_FREEPIK">
</g>
</svg>
